<svg width="24" height="24" viewBox="0 0 24 24" fill="none" xmlns="http://www.w3.org/2000/svg">
<path d="M14.2753 3.55575C14.3008 3.46056 14.3447 3.37133 14.4047 3.29315C14.4647 3.21496 14.5394 3.14935 14.6248 3.10008C14.7101 3.0508 14.8043 3.01882 14.902 3.00596C14.9996 2.99309 15.0989 2.99961 15.1941 3.02512C16.5844 3.38789 17.853 4.11473 18.869 5.13078C19.8851 6.14684 20.6119 7.41537 20.9747 8.80575C21.0002 8.90092 21.0067 9.00018 20.9939 9.09786C20.981 9.19555 20.949 9.28974 20.8997 9.37506C20.8505 9.46039 20.7849 9.53516 20.7067 9.59512C20.6285 9.65508 20.5393 9.69904 20.4441 9.7245C20.3807 9.74114 20.3155 9.74964 20.25 9.74981C20.0849 9.74986 19.9243 9.6954 19.7933 9.59488C19.6622 9.49436 19.5681 9.3534 19.5253 9.19387C19.2296 8.05869 18.6365 7.02292 17.8071 6.19335C16.9777 5.36378 15.942 4.77044 14.8069 4.4745C14.7116 4.44914 14.6223 4.40525 14.544 4.34533C14.4657 4.28542 14.4 4.21066 14.3506 4.12533C14.3013 4.04 14.2692 3.94577 14.2563 3.84803C14.2433 3.7503 14.2498 3.65098 14.2753 3.55575ZM14.0569 7.4745C15.3497 7.8195 16.1803 8.65106 16.5253 9.94387C16.5681 10.1034 16.6622 10.2444 16.7933 10.3449C16.9243 10.4454 17.0849 10.4999 17.25 10.4998C17.3155 10.4996 17.3807 10.4911 17.4441 10.4745C17.5393 10.449 17.6285 10.4051 17.7067 10.3451C17.7849 10.2852 17.8505 10.2104 17.8997 10.1251C17.949 10.0397 17.981 9.94555 17.9939 9.84786C18.0067 9.75018 18.0002 9.65092 17.9747 9.55575C17.4947 7.7595 16.2403 6.50512 14.4441 6.02512C14.3489 5.9997 14.2497 5.99327 14.152 6.0062C14.0544 6.01913 13.9602 6.05117 13.8749 6.10049C13.7897 6.1498 13.7149 6.21543 13.655 6.29363C13.5951 6.37182 13.5512 6.46105 13.5258 6.55622C13.5004 6.65138 13.4939 6.75063 13.5069 6.84828C13.5198 6.94593 13.5518 7.04008 13.6012 7.12535C13.6505 7.21062 13.7161 7.28534 13.7943 7.34525C13.8725 7.40516 13.9617 7.44907 14.0569 7.4745ZM20.8472 14.8554L16.4306 12.8764L16.4184 12.8707C16.1892 12.7727 15.939 12.7333 15.6907 12.7562C15.4424 12.7792 15.2037 12.8636 14.9963 13.002C14.9718 13.0181 14.9484 13.0357 14.9259 13.0545L12.6441 14.9998C11.1984 14.2976 9.70595 12.8164 9.00376 11.3895L10.9519 9.07293C10.9706 9.0495 10.9884 9.02606 11.0053 9.00075C11.1407 8.79384 11.2229 8.55667 11.2445 8.31035C11.2661 8.06402 11.2264 7.81618 11.1291 7.58887V7.57762L9.14438 3.15356C9.0157 2.85662 8.79444 2.60926 8.51362 2.44841C8.2328 2.28756 7.9075 2.22184 7.58626 2.26106C6.31592 2.42822 5.14986 3.05209 4.30588 4.01615C3.4619 4.98021 2.99771 6.21852 3.00001 7.49981C3.00001 14.9436 9.05626 20.9998 16.5 20.9998C17.7813 21.0021 19.0196 20.5379 19.9837 19.6939C20.9477 18.85 21.5716 17.6839 21.7388 16.4136C21.7781 16.0924 21.7125 15.7672 21.5518 15.4864C21.3911 15.2056 21.144 14.9843 20.8472 14.8554Z" fill="#DC2626"/>
</svg>
