<svg width="24" height="24" viewBox="0 0 24 24" fill="none" xmlns="http://www.w3.org/2000/svg">
<g clip-path="url(#clip0_13133_78288)">
<rect x="6" y="7.5" width="15" height="10.5" fill="#DC2626"/>
<path d="M7.55821 1.63357C7.7091 1.59045 7.86673 1.57698 8.02301 1.57227C10.7168 1.58237 13.4107 1.57092 16.1045 1.57563C16.8246 1.58439 17.5487 1.53589 18.2635 1.64569C19.253 1.72114 20.2055 2.14013 20.9418 2.8023C21.866 3.68543 22.3591 4.95723 22.3746 6.22566C22.3753 9.79655 22.3732 13.3701 22.3766 16.9397C22.3672 16.9605 22.349 17.0037 22.3396 17.0252C21.3796 18.099 20.089 18.8258 18.7397 19.296C16.9216 19.9157 14.9741 20.1151 13.0631 19.9696C11.152 19.8053 9.2261 19.3061 7.60536 18.2499C6.7768 18.6183 5.8627 18.7989 4.95532 18.7241C4.92299 18.6904 4.89133 18.6567 4.859 18.6231C5.35209 18.0963 5.71652 17.4018 5.68755 16.6648C5.68351 16.3213 5.42551 16.0714 5.27058 15.7884C4.34502 14.2074 3.90851 12.3786 3.81555 10.5598C3.72192 8.32603 4.13485 6.02156 5.26789 4.07276C5.83306 3.09937 6.61513 2.25128 7.55821 1.63357ZM15.3507 8.39474C15.3568 10.0094 15.3406 11.6248 15.3581 13.2388C15.4645 13.6153 15.9354 13.4341 16.2183 13.4739C16.2136 11.781 16.2136 10.0876 16.2183 8.39474C15.9287 8.39474 15.6397 8.39474 15.3507 8.39474ZM6.51005 8.45469C6.5087 8.7403 6.50668 9.0266 6.51274 9.31221C7.44167 9.30211 8.37127 9.30952 9.3002 9.30817C8.3962 10.45 7.47737 11.581 6.56933 12.7201C6.3888 12.9255 6.3861 13.2112 6.38273 13.4691C7.60334 13.4819 8.82462 13.4691 10.0459 13.4759C10.1853 13.4745 10.3538 13.486 10.4467 13.358C10.5949 13.16 10.5147 12.8939 10.5329 12.6655C9.55685 12.6655 8.58077 12.6696 7.60469 12.6635C8.52284 11.5197 9.42213 10.361 10.341 9.21723C10.5174 9.00437 10.5323 8.7174 10.5417 8.45401C9.19781 8.44458 7.8546 8.45334 6.51005 8.45469ZM18.3692 9.5756C17.7939 9.69753 17.2786 10.0822 17.0119 10.6083C16.6973 11.2044 16.7182 11.9629 17.0644 12.5422C17.5056 13.3263 18.5241 13.7177 19.3749 13.418C20.3766 13.1162 20.9829 11.938 20.6508 10.9471C20.386 9.99459 19.3365 9.35937 18.3692 9.5756ZM11.2032 10.2809C10.5882 11.0097 10.6225 12.1792 11.286 12.8656C11.9085 13.5742 13.0853 13.7063 13.8344 13.1243C13.8889 13.2469 13.9314 13.3971 14.0688 13.453C14.2648 13.4934 14.4676 13.4698 14.667 13.4752C14.6636 12.2081 14.6649 10.9417 14.6663 9.6753C14.3948 9.67664 14.124 9.67597 13.8526 9.67732C13.8546 9.74064 13.8593 9.8666 13.8613 9.92993C13.6538 9.80396 13.439 9.6854 13.2018 9.62545C12.4838 9.41999 11.6687 9.70426 11.2032 10.2809Z" fill="#F7F7F7"/>
<path d="M12.3052 10.4535C12.8683 10.2137 13.575 10.533 13.7845 11.1029C14.0007 11.627 13.7683 12.2824 13.2651 12.5465C12.7228 12.8577 11.9643 12.6206 11.6949 12.0561C11.379 11.4768 11.6814 10.6731 12.3052 10.4535Z" fill="#ECECEC"/>
<path d="M18.3527 10.4345C18.9414 10.1933 19.6723 10.5422 19.8609 11.1472C20.0866 11.7581 19.7019 12.5038 19.0654 12.6561C18.5076 12.8245 17.8656 12.489 17.675 11.9407C17.4446 11.3607 17.7626 10.6426 18.3527 10.4345Z" fill="#ECECEC"/>
<path fill-rule="evenodd" clip-rule="evenodd" d="M7.6236 1.57395C6.90282 1.55778 6.17733 1.55846 5.46396 1.67095C4.44881 1.81241 3.4835 2.31224 2.80179 3.08085C1.9409 3.98822 1.61689 5.26811 1.60207 6.49141C1.60139 10.1512 1.60139 13.811 1.60207 17.4715C1.62901 18.2643 1.73275 19.0734 2.07967 19.7968C2.65225 21.0484 3.8513 21.9848 5.20192 22.2468C6.1474 22.4255 7.11275 22.4075 8.07172 22.3896C8.19902 22.3873 8.32622 22.3849 8.45324 22.383C8.45491 22.3849 8.45658 22.3869 8.45825 22.3889C8.83548 22.4086 9.21397 22.4055 9.59264 22.4024C9.83404 22.4004 10.0755 22.3984 10.3168 22.4023C11.3942 22.402 12.4717 22.402 13.5492 22.402C14.6266 22.402 15.7041 22.402 16.7816 22.4017C17.4821 22.4104 18.1874 22.3788 18.8752 22.2366C20.1012 21.9753 21.1911 21.1588 21.792 20.0595C22.3086 19.1225 22.4225 18.0238 22.3949 16.9709L22.3417 17.0288C21.3817 18.1026 20.0911 18.8294 18.7418 19.2996C16.9237 19.9194 14.9762 20.1187 13.0652 19.9732C11.1541 19.8089 9.2282 19.3097 7.60746 18.2535C6.78114 18.621 5.86972 18.8015 4.96476 18.7283C4.96275 18.7261 4.96075 18.7239 4.95874 18.7217C4.94259 18.7049 4.92661 18.6881 4.91063 18.6713C4.89461 18.6544 4.8786 18.6376 4.86241 18.6207C5.3555 18.0939 5.71993 17.3994 5.69097 16.6625C5.68807 16.4162 5.55472 16.2181 5.42236 16.0214C5.37004 15.9437 5.31788 15.8662 5.274 15.7861C4.34843 14.2051 3.91193 12.3762 3.81897 10.5574C3.72533 8.32367 4.13826 6.0192 5.2713 4.0704C5.83647 3.09701 6.61855 2.24892 7.56162 1.63121L7.6236 1.57395Z" fill="#DC2626"/>
</g>
<defs>
<clipPath id="clip0_13133_78288">
<rect width="24" height="24" fill="white"/>
</clipPath>
</defs>
</svg>
