<svg width="48" height="48" viewBox="0 0 48 48" fill="none" xmlns="http://www.w3.org/2000/svg">
<circle cx="24" cy="24" r="24" fill="#F6F6F6"/>
<g opacity="0.1" filter="url(#filter0_f_14481_112788)">
<ellipse cx="24.6" cy="42.6" rx="21" ry="0.6" fill="black"/>
</g>
<g clip-path="url(#clip0_14481_112788)">
<path d="M25.6875 22.3125H22.3125C22.0018 22.3125 21.75 22.5643 21.75 22.875V33C21.75 33.3107 22.0018 33.5625 22.3125 33.5625H25.6875C25.9982 33.5625 26.25 33.3107 26.25 33V22.875C26.25 22.5643 25.9982 22.3125 25.6875 22.3125Z" fill="#2F6BFF"/>
<path d="M35.8125 22.3125H32.4375C32.1268 22.3125 31.875 22.5643 31.875 22.875V33C31.875 33.3107 32.1268 33.5625 32.4375 33.5625H35.8125C36.1232 33.5625 36.375 33.3107 36.375 33V22.875C36.375 22.5643 36.1232 22.3125 35.8125 22.3125Z" fill="#2F6BFF"/>
<path d="M15.5625 22.3125H12.1875C11.8768 22.3125 11.625 22.5643 11.625 22.875V33C11.625 33.3107 11.8768 33.5625 12.1875 33.5625H15.5625C15.8732 33.5625 16.125 33.3107 16.125 33V22.875C16.125 22.5643 15.8732 22.3125 15.5625 22.3125Z" fill="#2F6BFF"/>
<path d="M26.8125 19.5H21.1875C20.8768 19.5 20.625 19.7518 20.625 20.0625V22.875C20.625 23.1857 20.8768 23.4375 21.1875 23.4375H26.8125C27.1232 23.4375 27.375 23.1857 27.375 22.875V20.0625C27.375 19.7518 27.1232 19.5 26.8125 19.5Z" fill="#1437E1"/>
<path d="M36.9375 19.5H31.3125C31.0018 19.5 30.75 19.7518 30.75 20.0625V22.875C30.75 23.1857 31.0018 23.4375 31.3125 23.4375H36.9375C37.2482 23.4375 37.5 23.1857 37.5 22.875V20.0625C37.5 19.7518 37.2482 19.5 36.9375 19.5Z" fill="#1437E1"/>
<path d="M16.6875 19.5H11.0625C10.7518 19.5 10.5 19.7518 10.5 20.0625V22.875C10.5 23.1857 10.7518 23.4375 11.0625 23.4375H16.6875C16.9982 23.4375 17.25 23.1857 17.25 22.875V20.0625C17.25 19.7518 16.9982 19.5 16.6875 19.5Z" fill="#1437E1"/>
<path d="M39.416 15.6109L24.2283 8.86695C24.1564 8.83515 24.0786 8.81873 24 8.81873C23.9214 8.81873 23.8436 8.83515 23.7717 8.86695L8.58424 15.6109C8.48475 15.655 8.40021 15.7271 8.34088 15.8184C8.28156 15.9097 8.24998 16.0162 8.25 16.1251V20.0626C8.25 20.2117 8.30926 20.3548 8.41475 20.4603C8.52024 20.5658 8.66332 20.6251 8.8125 20.6251H39.1875C39.3367 20.6251 39.4798 20.5658 39.5852 20.4603C39.6907 20.3548 39.75 20.2117 39.75 20.0626V16.1251C39.75 16.0162 39.7185 15.9097 39.6592 15.8185C39.6 15.7272 39.5155 15.6551 39.416 15.6109Z" fill="#2F6BFF"/>
<path d="M24 17.25C27.1066 17.25 29.625 14.7316 29.625 11.625C29.625 8.5184 27.1066 6 24 6C20.8934 6 18.375 8.5184 18.375 11.625C18.375 14.7316 20.8934 17.25 24 17.25Z" fill="#F8C150"/>
<path d="M25.6876 11.0625C25.8368 11.0625 25.9798 11.0032 26.0853 10.8977C26.1908 10.7923 26.2501 10.6492 26.2501 10.5V10.1201C26.2486 9.65715 26.0751 9.21123 25.7633 8.86902C25.4514 8.52681 25.0235 8.31276 24.5626 8.26845V8.25C24.5626 8.10082 24.5033 7.95774 24.3978 7.85225C24.2923 7.74676 24.1493 7.6875 24.0001 7.6875C23.8509 7.6875 23.7078 7.74676 23.6023 7.85225C23.4968 7.95774 23.4376 8.10082 23.4376 8.25V8.26845C23.0117 8.30899 22.6127 8.49478 22.3076 8.79465C22.0024 9.09451 21.8097 9.49021 21.7618 9.91533C21.7138 10.3405 21.8135 10.7691 22.0442 11.1294C22.2749 11.4897 22.6224 11.7598 23.0286 11.8942L23.4376 12.0305V13.838C23.2784 13.7995 23.1366 13.7089 23.0347 13.5806C22.9328 13.4523 22.8766 13.2937 22.8751 13.1299V12.75C22.8751 12.6008 22.8158 12.4577 22.7103 12.3523C22.6048 12.2468 22.4618 12.1875 22.3126 12.1875C22.1634 12.1875 22.0203 12.2468 21.9148 12.3523C21.8093 12.4577 21.7501 12.6008 21.7501 12.75V13.1299C21.7516 13.5928 21.9251 14.0387 22.237 14.3809C22.5488 14.7231 22.9767 14.9372 23.4376 14.9816V15C23.4376 15.1492 23.4968 15.2923 23.6023 15.3977C23.7078 15.5032 23.8509 15.5625 24.0001 15.5625C24.1493 15.5625 24.2923 15.5032 24.3978 15.3977C24.5033 15.2923 24.5626 15.1492 24.5626 15V14.9816C24.9885 14.941 25.3875 14.7552 25.6927 14.4553C25.9978 14.1554 26.1905 13.7597 26.2384 13.3346C26.2864 12.9094 26.1866 12.4807 25.9559 12.1204C25.7251 11.7601 25.3775 11.4902 24.9713 11.3558L24.5626 11.2195V9.41196C24.7218 9.45055 24.8636 9.54117 24.9655 9.66945C25.0673 9.79772 25.1235 9.95633 25.1251 10.1201V10.5C25.1251 10.6492 25.1843 10.7923 25.2898 10.8977C25.3953 11.0032 25.5384 11.0625 25.6876 11.0625ZM24.6153 12.4231C24.7638 12.4724 24.8929 12.5672 24.9844 12.6941C25.0759 12.821 25.1252 12.9734 25.1251 13.1299C25.1235 13.2937 25.0673 13.4523 24.9655 13.5806C24.8636 13.7088 24.7218 13.7994 24.5626 13.838V12.4056L24.6153 12.4231ZM23.3846 10.8269C23.2362 10.7776 23.107 10.6828 23.0156 10.5559C22.9241 10.429 22.875 10.2765 22.8751 10.1201C22.8766 9.95632 22.9328 9.7977 23.0347 9.66942C23.1366 9.54113 23.2784 9.45053 23.4376 9.41196V10.8445L23.3846 10.8269Z" fill="white"/>
<path d="M26.8125 32.4375H21.1875C20.8768 32.4375 20.625 32.6893 20.625 33V35.8125C20.625 36.1232 20.8768 36.375 21.1875 36.375H26.8125C27.1232 36.375 27.375 36.1232 27.375 35.8125V33C27.375 32.6893 27.1232 32.4375 26.8125 32.4375Z" fill="#1437E1"/>
<path d="M36.9375 32.4375H31.3125C31.0018 32.4375 30.75 32.6893 30.75 33V35.8125C30.75 36.1232 31.0018 36.375 31.3125 36.375H36.9375C37.2482 36.375 37.5 36.1232 37.5 35.8125V33C37.5 32.6893 37.2482 32.4375 36.9375 32.4375Z" fill="#1437E1"/>
<path d="M16.6875 32.4375H11.0625C10.7518 32.4375 10.5 32.6893 10.5 33V35.8125C10.5 36.1232 10.7518 36.375 11.0625 36.375H16.6875C16.9982 36.375 17.25 36.1232 17.25 35.8125V33C17.25 32.6893 16.9982 32.4375 16.6875 32.4375Z" fill="#1437E1"/>
<path d="M38.625 35.25H9.375C9.06434 35.25 8.8125 35.5018 8.8125 35.8125V38.625C8.8125 38.9357 9.06434 39.1875 9.375 39.1875H38.625C38.9357 39.1875 39.1875 38.9357 39.1875 38.625V35.8125C39.1875 35.5018 38.9357 35.25 38.625 35.25Z" fill="#2F6BFF"/>
<path d="M40.875 38.0625H7.125C6.81434 38.0625 6.5625 38.3143 6.5625 38.625V41.4375C6.5625 41.7482 6.81434 42 7.125 42H40.875C41.1857 42 41.4375 41.7482 41.4375 41.4375V38.625C41.4375 38.3143 41.1857 38.0625 40.875 38.0625Z" fill="#E03B22"/>
</g>
<path d="M28.5754 14.1367L26.835 13.0951L28.2585 14.5451L28.3187 15.0584L27.2716 16.8306L28.7195 15.3731L29.2238 15.308L30.9623 16.349L29.5414 14.8977L29.4806 14.3863L30.5296 12.6147L29.0817 14.0722L28.5754 14.1367Z" fill="white"/>
<path d="M19.7918 7.33116L18.7326 6.69726L19.5989 7.57971L19.6356 7.8921L18.9983 8.97059L19.8795 8.08358L20.1864 8.04398L21.2444 8.67753L20.3797 7.79427L20.3426 7.48305L20.9811 6.40491L20.0999 7.29192L19.7918 7.33116Z" fill="white"/>
<defs>
<filter id="filter0_f_14481_112788" x="2.60001" y="41" width="44" height="3.20001" filterUnits="userSpaceOnUse" color-interpolation-filters="sRGB">
<feFlood flood-opacity="0" result="BackgroundImageFix"/>
<feBlend mode="normal" in="SourceGraphic" in2="BackgroundImageFix" result="shape"/>
<feGaussianBlur stdDeviation="0.5" result="effect1_foregroundBlur_14481_112788"/>
</filter>
<clipPath id="clip0_14481_112788">
<rect width="36" height="36" fill="white" transform="translate(6 6)"/>
</clipPath>
</defs>
</svg>
