<svg width="48" height="48" viewBox="0 0 48 48" fill="none" xmlns="http://www.w3.org/2000/svg">
<circle cx="24" cy="24" r="24" fill="#F6F6F6"/>
<g clip-path="url(#clip0_14481_112782)">
<g opacity="0.1" filter="url(#filter0_f_14481_112782)">
<ellipse cx="24.6002" cy="42.6" rx="21" ry="0.6" fill="black"/>
</g>
<path d="M19.7283 41.6494L16.2812 34.3209L15.0451 35.7523C12.0507 33.5063 9.95814 30.3358 9.22672 26.8527C8.96542 22.2889 11.0815 17.7386 14.5526 14.816C15.038 14.3324 14.4972 13.1844 14.5213 12.5172C14.3414 12.3255 13.6637 12.9681 13.5644 13.0135C8.50124 16.5557 4.67352 22.5979 5.71758 28.8572C5.705 28.77 5.69052 28.683 5.67788 28.5939C5.93514 32.9884 7.85716 37.2635 11.3565 40.0152L10.8226 40.6356L11.0829 42.6255L19.9886 43.6392L19.7283 41.6494ZM14.5094 12.5576C14.5094 12.5576 14.5112 12.5557 14.5131 12.5537C14.5093 12.5557 14.5132 12.5575 14.5094 12.5576Z" fill="#3362CC"/>
<path d="M5.93073 30.5735L5.67419 28.5808C5.71808 28.9281 5.77725 29.2749 5.84966 29.6175C5.88367 29.7803 5.92156 29.9449 5.96322 30.1074C6.85105 33.6307 9.12201 36.7828 12.2987 38.9372L12.5552 40.9299C9.37657 38.7736 7.10568 35.6234 6.21975 32.1C6.1781 31.9375 6.14027 31.7749 6.1062 31.6102C6.03373 31.2657 5.97462 30.9208 5.93073 30.5735Z" fill="#3362CC"/>
<path d="M5.92759 30.5662L5.67418 28.5718C5.71752 28.9195 5.7762 29.2666 5.84817 29.6095C5.88198 29.7724 5.91968 29.9372 5.96115 30.0999C6.84505 33.6268 9.11789 36.7842 12.3018 38.9446L12.5552 40.9389C9.36933 38.7767 7.09655 35.6212 6.21457 32.0942C6.1731 31.9315 6.13546 31.7687 6.10159 31.6038C6.02956 31.259 5.97094 30.9138 5.92759 30.5662Z" fill="black"/>
<path d="M12.2973 38.9264L12.5555 40.9169C12.2546 40.714 11.9629 40.5012 11.6786 40.2806L11.4204 38.2901C11.7047 38.5107 11.9964 38.7235 12.2973 38.9264Z" fill="#3362CC"/>
<path d="M11.4265 38.2917L11.6803 40.2851C11.2122 39.9206 10.7664 39.5325 10.3449 39.1246L10.0911 37.1311C10.5125 37.539 10.9564 37.9272 11.4265 38.2917Z" fill="#3362CC"/>
<path d="M10.0933 37.1386L10.3508 39.1295C8.33028 37.1736 6.88656 34.7448 6.22145 32.1068C6.17972 31.9444 6.14182 31.7819 6.10767 31.6174C6.03504 31.2732 5.97577 30.9286 5.93172 30.5816L5.67426 28.5906C5.71831 28.9376 5.77764 29.2841 5.85021 29.6264C5.88429 29.789 5.92226 29.9534 5.96399 30.1158C6.63101 32.7538 8.07282 35.1826 10.0933 37.1386Z" fill="#3362CC"/>
<path d="M14.5374 12.5158C14.5465 12.5574 14.4631 12.627 14.3864 12.7267C14.1437 13.0416 13.7852 13.313 13.4777 13.5749C13.5001 13.5608 13.4207 13.6359 13.3414 13.711C13.262 13.7861 13.1825 13.8593 13.1825 13.8593C13.0075 14.0367 12.8404 14.2214 12.6771 14.406C12.2974 14.8399 11.9488 15.2899 11.6256 15.7581C10.9812 16.6962 10.4417 17.6936 10.0196 18.7251C9.1561 20.8324 8.78935 23.0846 8.98741 25.2983C9.0344 25.8338 9.11553 26.3642 9.22687 26.886C9.96368 30.3553 12.0528 33.5173 15.0406 35.7591L16.28 34.3282L19.7249 41.6619L10.8051 40.6407L12.2865 38.9311C9.11321 36.7814 6.84356 33.6371 5.95445 30.1178C5.91265 29.9554 5.87466 29.793 5.84042 29.6285C5.11922 26.2253 5.76685 22.6056 7.54435 19.4709C8.72162 17.3965 10.3904 15.6481 12.2548 14.0435C12.6733 13.6844 13.1207 13.3358 13.5766 13.0135C13.6473 12.9616 14.2782 12.46 14.4446 12.479C14.5059 12.4865 14.533 12.4989 14.5375 12.5197L14.5374 12.5158Z" fill="#407BFF"/>
<path d="M19.7865 41.7917L10.8166 40.3203L11.0184 42.4892L19.9884 43.9607L19.7865 41.7917Z" fill="#3362CC"/>
<path d="M9.2631 27.2887C9.09322 25.4084 9.33592 23.4811 9.92555 21.6898C10.4724 20.0294 11.3053 18.4521 12.3751 17.068C12.6802 16.6745 13.001 16.2918 13.3494 15.9367C13.4337 15.8499 13.52 15.765 13.6081 15.68C13.6834 15.6069 13.7528 15.5282 13.8322 15.4626C14.0795 15.2577 14.3346 15.0582 14.5463 14.8127C14.705 14.628 14.7849 14.5757 14.7561 14.3559L14.665 13.6682C14.6152 13.2855 14.5634 12.901 14.5136 12.5183C14.514 12.5278 14.5146 12.5449 14.5016 12.5549C14.2214 12.7971 13.7572 13.1545 13.4827 13.3946C13.2413 13.607 13.1553 13.7509 12.9337 13.9853C12.6225 14.3163 12.1136 14.8066 11.8358 15.1667C11.2817 15.8814 11.0038 16.5042 10.582 17.3055C9.75108 18.8846 9.09044 20.9221 8.87456 22.6963C8.73628 23.8242 8.65174 24.8075 8.80039 25.9348L9.32004 27.8177C9.29663 27.6415 9.27695 27.4633 9.26107 27.2849L9.2631 27.2887Z" fill="#3362CC"/>
<path d="M38.9637 24.5983C39.3748 21.6568 38.8842 18.5838 37.3986 15.9964C36.9166 15.1579 36.3427 14.3729 35.6782 13.6698C34.9254 12.8736 34.0671 12.1743 33.2473 11.4476C35.5068 13.4524 36.9241 16.2671 37.3265 19.2496C37.7315 22.2444 37.1365 25.3932 35.7552 28.0763C34.3826 30.7419 32.3368 33.0225 29.7978 34.6274C27.2763 36.2211 24.3262 37.103 21.3363 37.0198C18.616 36.9341 15.9466 36.0261 13.8138 34.3206C13.6536 34.1926 13.4971 34.061 13.3443 33.9243C14.4237 34.882 15.4659 35.8969 16.7018 36.6533C17.8359 37.3477 19.0818 37.8508 20.3761 38.1501C23.2418 38.8147 26.285 38.488 28.9942 37.3688C31.7008 36.2509 34.0833 34.3852 35.8471 32.0499C37.4892 29.8774 38.5873 27.2999 38.9637 24.5995V24.5983Z" fill="url(#paint0_linear_14481_112782)"/>
<path style="mix-blend-mode:screen" opacity="0.5" d="M28.9952 37.3676C29.9405 36.9763 30.846 36.4931 31.6994 35.9317L30.6672 34.8411C30.543 34.9243 30.4187 35.0075 30.292 35.087C27.7196 36.713 24.7111 37.6123 21.6616 37.5266C19.499 37.4583 17.3687 36.8782 15.503 35.8025C15.8868 36.1068 16.2831 36.3938 16.7017 36.6509C17.8358 37.3452 19.0816 37.8483 20.376 38.1477C23.2416 38.8122 26.2849 38.4855 28.994 37.3664L28.9952 37.3676Z" fill="url(#paint1_linear_14481_112782)" fill-opacity="0.5"/>
<path d="M26.2576 8.41946C33.9018 9.22313 38.771 16.2612 37.1351 24.1401C35.4992 32.0191 27.9767 37.7554 20.3325 36.9517C12.6896 36.1493 7.8191 29.11 9.45501 21.231C11.0909 13.352 18.6146 7.61703 26.2576 8.41946Z" fill="url(#paint2_linear_14481_112782)"/>
<path style="mix-blend-mode:screen" opacity="0.2" d="M26.1546 8.74966C18.7787 7.97331 11.5171 13.5096 9.93833 21.114C9.8166 21.7003 9.73213 22.2829 9.68369 22.858C12.7791 25.0877 16.5155 26.5584 20.7103 26.9993C26.3136 27.5881 31.8809 26.2516 36.7315 23.5126C38.0619 16.0746 33.4001 9.5111 26.1546 8.74966Z" fill="url(#paint3_linear_14481_112782)"/>
<g style="mix-blend-mode:multiply" opacity="0.6">
<path d="M25.0976 14.1816C25.7162 14.2462 25.9782 14.3282 25.9459 14.4959L25.741 15.4821L25.9633 15.5231C27.1968 15.8026 28.1284 16.2895 28.6215 16.9615C29.106 17.6236 29.2314 18.4968 29.0103 19.5626C28.9855 19.6806 28.9246 19.8533 28.8613 20.0756C28.8228 20.0918 28.0824 20.4048 26.8726 20.2781C25.6652 20.1514 24.9137 19.6806 24.874 19.6558L24.9634 19.2247C25.1137 18.5006 25.2193 18.0534 25.1547 17.8C25.0802 17.5068 24.9063 17.3429 24.5075 17.3006C24.1871 17.2671 23.915 17.359 23.7001 17.5727C23.4989 17.7714 23.3585 18.0683 23.2728 18.4782C23.1362 19.1353 23.1958 19.6259 23.4467 19.9365C23.6678 20.2172 24.3336 20.765 25.4814 21.6084C26.4279 22.2978 27.0689 22.8232 27.3868 23.1673C27.6937 23.4977 27.9222 23.9511 28.0651 24.5188C28.2104 25.0852 28.1818 25.7833 28.0116 26.5994C27.7421 27.8987 27.1645 28.8912 26.3211 29.552C25.4714 30.2165 24.2777 30.5668 22.8331 30.5941L22.6021 30.5917L22.3077 32.0065C22.2891 32.0152 21.9375 32.1717 21.4431 32.1195C20.95 32.0673 20.5935 31.8363 20.5749 31.8251L20.8792 30.3569L20.8308 30.3358C19.7551 30.1209 18.9862 29.6514 18.3092 28.9085C17.6471 28.1844 17.4509 26.9882 17.7887 25.361L17.903 24.8132C17.9453 24.797 19.1849 24.1809 20.4643 24.3151C21.7438 24.4492 21.9114 25.2144 21.9425 25.238L21.7897 25.9746C21.4953 27.3906 21.4431 27.7894 21.4692 27.9682C21.5015 28.2067 21.5984 28.4974 22.1263 28.5533C22.4704 28.5893 22.7573 28.5048 22.9797 28.3061C23.1946 28.1136 23.3424 27.8192 23.4231 27.4304C23.6082 26.541 23.6678 25.9087 23.607 25.4976C23.5424 25.0616 23.1523 24.5821 22.4207 24.0331C21.2866 23.1735 20.5091 22.5425 20.1215 22.1587C19.7476 21.7873 19.447 21.2793 19.247 20.6482C19.047 20.0247 19.0085 19.3266 19.1638 18.5788C19.3899 17.4894 19.8594 16.6907 20.668 16.1479C21.4829 15.6014 22.5474 15.3169 23.9709 15.3169L24.2566 14.1021C24.274 14.0909 24.4777 14.1195 25.0963 14.1841L25.0976 14.1816Z" fill="#94512A"/>
</g>
<g style="mix-blend-mode:multiply" opacity="0.5">
<path d="M21.4954 36.2732C14.6822 35.5565 9.71485 29.6178 11.2452 22.2481C12.7755 14.8784 19.8123 9.51482 26.9609 10.2663C32.963 10.8973 36.4745 15.9566 36.7416 21.5463C37.0397 14.8958 32.5605 9.33347 25.9162 8.63538C18.5143 7.85655 11.2278 13.4115 9.64405 21.042C8.05907 28.6725 12.7768 35.4895 20.1775 36.267C20.8483 36.3378 21.519 36.3552 22.1836 36.3254C21.9538 36.3142 21.724 36.2968 21.4942 36.2732H21.4954Z" fill="#94512A"/>
</g>
<path d="M24.8306 13.9332C25.4243 13.9953 25.561 14.2549 25.5684 14.2685L25.3287 15.4213L25.5411 15.461C26.7261 15.7306 27.6204 16.1976 28.0949 16.8435C28.5608 17.4795 28.6812 18.3192 28.4688 19.3427C28.4452 19.457 28.3869 19.6222 28.326 19.8346C28.2887 19.8508 27.5782 20.1514 26.4156 20.0296C25.2554 19.9079 24.5337 19.4558 24.4952 19.4322L24.5809 19.0173C24.725 18.3217 24.8268 17.8919 24.7647 17.6484C24.6939 17.3677 24.5262 17.21 24.1437 17.169C23.8356 17.1367 23.5748 17.2249 23.3673 17.4298C23.1735 17.6199 23.0381 17.9056 22.9574 18.2993C22.8257 18.9316 22.8829 19.4024 23.1251 19.7005C23.3375 19.97 23.9772 20.4967 25.0802 21.3066C25.9895 21.9686 26.6056 22.473 26.9112 22.8034C27.2056 23.1214 27.4254 23.5561 27.5633 24.1014C27.7024 24.6455 27.6751 25.3162 27.5111 26.1013C27.2515 27.3496 26.6963 28.3024 25.8864 28.9384C25.0703 29.5768 23.9238 29.9134 22.5351 29.9395L22.3127 29.937L22.0308 31.296C22.0134 31.3034 21.6755 31.4537 21.201 31.404C20.7265 31.3543 20.3849 31.132 20.3675 31.1208L20.6607 29.711L20.6147 29.6911C19.5812 29.4849 18.8422 29.0328 18.1913 28.3198C17.5553 27.6242 17.3665 26.4752 17.6907 24.9125L17.8 24.3859C17.841 24.371 18.6099 24.0791 19.8396 24.2082C21.0681 24.3374 21.6507 24.7709 21.6817 24.7945L21.5351 25.5013C21.2532 26.8615 21.201 27.2453 21.2271 27.4167C21.2581 27.6465 21.3513 27.9248 21.8581 27.9782C22.1885 28.013 22.4643 27.9322 22.6779 27.7409C22.8841 27.5558 23.0257 27.2726 23.104 26.9C23.2816 26.0466 23.3387 25.438 23.2804 25.043C23.2183 24.6231 22.8431 24.1635 22.1401 23.6356C21.0495 22.8108 20.3029 22.2034 19.9315 21.8345C19.5725 21.4767 19.2831 20.9898 19.0906 20.3837C18.8993 19.7837 18.8608 19.1142 19.0099 18.395C19.2272 17.3491 19.6781 16.5814 20.4557 16.0597C21.2383 15.5343 22.2618 15.2623 23.6294 15.261L23.9039 14.0934C23.9201 14.0822 24.2356 13.8711 24.8306 13.9332Z" fill="url(#paint4_linear_14481_112782)"/>
<path d="M25.151 9.95205C25.5808 9.95205 26.0156 9.97441 26.4416 10.0191C29.6302 10.3545 32.3928 11.9171 34.22 14.4201C35.1702 15.7206 35.8224 17.205 36.159 18.8309C36.5105 20.5277 36.4993 22.3003 36.1254 24.0964C35.451 27.3422 33.6374 30.3308 31.0177 32.5145C28.4254 34.6746 25.269 35.8646 22.1301 35.8646C21.6991 35.8646 21.2643 35.8422 20.8383 35.7975C17.6497 35.4621 14.8871 33.8995 13.0599 31.3966C12.1097 30.096 11.4588 28.6116 11.1209 26.9857C10.7694 25.2889 10.7806 23.5176 11.1532 21.7202C11.8277 18.4745 13.6413 15.4858 16.261 13.3021C18.8533 11.142 22.0096 9.95329 25.1498 9.95205M25.1498 8.72232C18.0993 8.72232 11.4675 14.1642 9.94959 21.4693C8.33107 29.2625 13.1481 35.6 20.7091 36.3937C21.1836 36.4434 21.6569 36.4683 22.1301 36.4683C29.1806 36.4683 35.2435 31.2438 36.7602 23.9399C38.3787 16.1454 34.1318 9.59183 26.5708 8.79685C26.0963 8.74716 25.6231 8.72232 25.1498 8.72232Z" fill="#E99855"/>
<path d="M24.8228 9.58931C25.2575 9.58931 25.6972 9.61291 26.1283 9.65763C29.3516 9.99674 32.1452 11.5768 33.9923 14.107C34.9525 15.4225 35.6121 16.9217 35.9524 18.5663C36.3077 20.2817 36.2965 22.0729 35.9189 23.8902C35.237 27.1707 33.4035 30.1929 30.7553 32.4002C28.1343 34.5839 24.9432 35.7863 21.7696 35.7863C21.3336 35.7863 20.8951 35.7627 20.4628 35.718C17.2394 35.3789 14.4471 33.7988 12.6 31.2686C11.6398 29.9531 10.9802 28.4539 10.6399 26.8093C10.2846 25.0938 10.2958 23.3027 10.6734 21.4866C11.3554 18.2061 13.1888 15.1827 15.837 12.9767C18.458 10.793 21.6491 9.59055 24.8228 9.59055M24.8215 8.34592C17.6928 8.34592 10.9877 13.8474 9.45486 21.232C7.81895 29.111 12.6894 36.149 20.3324 36.9527C20.8131 37.0036 21.2913 37.0284 21.7683 37.0284C28.897 37.0284 35.6009 31.5257 37.135 24.1424C38.7709 16.2621 33.9016 9.22412 26.2574 8.42045C25.7767 8.37076 25.2985 8.34592 24.8215 8.34592Z" fill="url(#paint5_linear_14481_112782)"/>
<path d="M24.4573 13.6846C25.0523 13.7467 25.1877 14.0063 25.1951 14.0199L24.9554 15.1727L25.1678 15.2124C26.3528 15.482 27.2472 15.949 27.7217 16.5949C28.1875 17.2309 28.308 18.0706 28.0956 19.0941C28.072 19.2084 28.0136 19.3736 27.9527 19.586C27.9155 19.6022 27.2049 19.9028 26.0423 19.781C24.8821 19.6593 24.1604 19.2072 24.1219 19.1836L24.2076 18.7687C24.3517 18.0731 24.4536 17.6433 24.3915 17.3998C24.3207 17.1179 24.153 16.9601 23.7704 16.9204C23.4623 16.8881 23.2015 16.9763 22.9941 17.1812C22.8003 17.3713 22.6649 17.657 22.5841 18.0507C22.4537 18.6817 22.5096 19.1538 22.7518 19.4519C22.9642 19.7214 23.604 20.2481 24.707 21.058C25.6162 21.72 26.2323 22.2244 26.5379 22.5548C26.8323 22.8728 27.0522 23.3075 27.19 23.8528C27.3292 24.3969 27.3018 25.0676 27.1391 25.8527C26.8795 27.101 26.3243 28.0538 25.5144 28.6898C24.6983 29.3282 23.5518 29.6648 22.1631 29.6909L21.9407 29.6884L21.6587 31.0474C21.6414 31.0548 21.3035 31.2051 20.829 31.1554C20.3545 31.1057 20.0129 30.8834 19.9955 30.8722L20.2886 29.4624L20.2427 29.4425C19.2092 29.2363 18.4701 28.7842 17.8193 28.0712C17.182 27.3756 16.9945 26.2266 17.3187 24.6639L17.428 24.1373C17.469 24.1224 18.2379 23.8305 19.4676 23.9596C20.6961 24.0888 21.2786 24.5223 21.3097 24.5459L21.1631 25.2527C20.8812 26.6129 20.829 26.9967 20.8551 27.1681C20.8861 27.3979 20.9793 27.6762 21.4861 27.7296C21.8165 27.7644 22.0923 27.6836 22.3059 27.4923C22.5121 27.3072 22.6537 27.024 22.732 26.6514C22.9096 25.798 22.9667 25.1894 22.9083 24.7944C22.845 24.3745 22.4711 23.9149 21.7681 23.387C20.6774 22.5622 19.9309 21.9548 19.5595 21.5859C19.2005 21.2282 18.9123 20.7412 18.7198 20.1351C18.5285 19.5363 18.49 18.8656 18.6391 18.1464C18.8564 17.1005 19.3073 16.3328 20.0849 15.8111C20.8675 15.2857 21.891 15.0137 23.2586 15.0124L23.5331 13.8448C23.5493 13.8336 23.8648 13.6225 24.4598 13.6846H24.4573Z" fill="url(#paint6_linear_14481_112782)"/>
<g style="mix-blend-mode:screen" opacity="0.1">
<path d="M24.243 14.0462C24.3002 14.0462 24.3586 14.0499 24.4182 14.0561C24.6033 14.076 24.7188 14.1158 24.7871 14.1505L24.5908 15.097L24.5138 15.4697L24.8877 15.5393L25.0939 15.5778C26.2094 15.8324 27.0143 16.2597 27.4229 16.8149C27.8192 17.3565 27.9235 18.0981 27.7322 19.0185C27.7223 19.0695 27.6962 19.1514 27.6676 19.2458C27.6627 19.262 27.6577 19.2794 27.6515 19.2968C27.4577 19.3539 27.0913 19.4371 26.5895 19.4371C26.4242 19.4371 26.2528 19.4284 26.0827 19.4098C25.3647 19.334 24.8281 19.1229 24.5449 18.9862L24.5747 18.8434L24.6144 18.6546C24.7511 18.0037 24.8331 17.6112 24.756 17.3068C24.6405 16.851 24.3325 16.6025 23.812 16.5479C23.7573 16.5417 23.7039 16.5392 23.6505 16.5392C23.299 16.5392 22.9822 16.6684 22.7351 16.9131C22.4866 17.1578 22.3189 17.5043 22.2208 17.9726C22.0655 18.7179 22.1475 19.2943 22.4605 19.6806C22.6108 19.8706 22.9835 20.252 24.489 21.3575C25.5945 22.1624 26.0653 22.5897 26.2653 22.8071C26.5187 23.0804 26.7075 23.4629 26.8292 23.9449C26.9484 24.4107 26.9298 25.0268 26.7733 25.7758C26.5348 26.9261 26.033 27.8067 25.284 28.3955C24.5474 28.9731 23.4679 29.2911 22.1612 29.3172L21.9451 29.3147L21.6382 29.311L21.5761 29.6116L21.3376 30.7581C21.2557 30.7767 21.1476 30.7929 21.0221 30.7929C20.9712 30.7929 20.919 30.7904 20.8681 30.7842C20.6905 30.7656 20.5352 30.7159 20.4184 30.6687L20.6532 29.5371L20.7153 29.2402L20.4371 29.1197L20.3911 29.0998L20.3551 29.0837L20.3166 29.0762C19.4086 28.8949 18.7229 28.5073 18.0956 27.8179C17.5354 27.2055 17.3938 26.141 17.6857 24.7374L17.7503 24.4269C17.9615 24.3722 18.3391 24.2977 18.8509 24.2977C19.0409 24.2977 19.2359 24.3076 19.4309 24.3287C20.1688 24.4057 20.6482 24.5995 20.8929 24.7262L20.7998 25.1746C20.4905 26.6627 20.4545 26.9969 20.4868 27.2155C20.5737 27.8713 21.0582 28.0577 21.4482 28.0986C21.5103 28.1049 21.5724 28.1086 21.632 28.1086C21.9873 28.1086 22.3065 27.9906 22.5549 27.7682C22.8195 27.531 23.0021 27.1795 23.0965 26.7248C23.2853 25.8143 23.3425 25.1833 23.2766 24.7374C23.1984 24.2107 22.7897 23.6865 21.9923 23.0878C20.9016 22.2618 20.1713 21.6668 19.8222 21.3202C19.4968 20.9973 19.2459 20.56 19.0744 20.0197C18.8956 19.462 18.872 18.8558 19.0036 18.2211C19.2073 17.241 19.616 16.5727 20.2917 16.1193C21.0283 15.625 21.9985 15.3852 23.258 15.384H23.5536L23.6207 15.097L23.8542 14.1033C23.9375 14.0748 24.0679 14.0449 24.243 14.0449M24.243 13.6723C23.7884 13.6723 23.5462 13.8338 23.5313 13.8437L23.2568 15.0113C21.8892 15.0113 20.8656 15.2846 20.0831 15.81C19.3067 16.3317 18.8546 17.0994 18.6372 18.1453C18.4881 18.8645 18.5254 19.534 18.7179 20.134C18.9105 20.7401 19.1987 21.2271 19.5576 21.5848C19.929 21.9537 20.6756 22.5611 21.7662 23.3859C22.4692 23.9138 22.8431 24.3734 22.9065 24.7933C22.9649 25.1883 22.9065 25.7957 22.7301 26.6503C22.6531 27.0242 22.5102 27.3062 22.304 27.4912C22.1227 27.654 21.8966 27.7372 21.6295 27.7372C21.5823 27.7372 21.5339 27.7347 21.4842 27.7297C20.9774 27.6763 20.8843 27.3968 20.8532 27.1683C20.8284 26.9956 20.8793 26.613 21.1613 25.2529L21.3078 24.5461C21.2768 24.5237 20.6942 24.089 19.4657 23.9598C19.2434 23.9362 19.0372 23.9263 18.8459 23.9263C17.9813 23.9263 17.4584 24.125 17.4249 24.1374L17.3156 24.6641C16.9914 26.2267 17.1789 27.3757 17.8161 28.0713C18.467 28.7856 19.2061 29.2365 20.2396 29.4427L20.2855 29.4625L19.9924 30.8724C20.0098 30.8836 20.3514 31.1059 20.8259 31.1556C20.8929 31.163 20.9575 31.1655 21.0184 31.1655C21.3898 31.1655 21.6395 31.0537 21.6556 31.0475L21.9376 29.6886L22.1599 29.6911C23.5487 29.6638 24.6952 29.3284 25.5113 28.6899C26.3212 28.0539 26.8764 27.1012 27.136 25.8528C27.2987 25.0678 27.3261 24.397 27.1869 23.853C27.0491 23.3077 26.8292 22.8729 26.5348 22.5549C26.2292 22.2245 25.6131 21.719 24.7039 21.0581C23.6008 20.2483 22.9611 19.7216 22.7487 19.452C22.5065 19.1539 22.4506 18.6831 22.581 18.0509C22.663 17.6571 22.7984 17.3714 22.9909 17.1814C23.1698 17.0038 23.3897 16.9143 23.6443 16.9143C23.6841 16.9143 23.7251 16.9168 23.766 16.9205C24.1486 16.9603 24.3163 17.118 24.3871 17.4C24.4492 17.6435 24.3474 18.0745 24.2033 18.7689L24.1176 19.1837C24.1548 19.2073 24.8765 19.6595 26.0379 19.7812C26.233 19.8023 26.4156 19.8098 26.5845 19.8098C27.4205 19.8098 27.9173 19.5986 27.9484 19.5862C28.0092 19.3725 28.0676 19.2073 28.0912 19.0943C28.3036 18.0708 28.1831 17.2311 27.7173 16.5951C27.2428 15.9492 26.3485 15.4821 25.1635 15.2126L24.9511 15.1728L25.1908 14.0201C25.1833 14.0064 25.0467 13.7481 24.453 13.6847C24.3772 13.6773 24.3051 13.6735 24.2381 13.6735L24.243 13.6723Z" fill="url(#paint7_linear_14481_112782)"/>
</g>
<g opacity="0.4">
<path d="M21.1622 25.2516L21.3088 24.5449C21.2778 24.5225 20.6952 24.0877 19.4667 23.9586C18.237 23.8294 17.4668 24.1213 17.4271 24.1362L17.3178 24.6629C17.2433 25.0231 17.1973 25.3609 17.1762 25.6765C18.2357 25.9398 19.3313 26.1348 20.4617 26.2541C20.6256 26.2714 20.7908 26.2864 20.9548 26.3013C21.0032 26.0379 21.0703 25.6988 21.1635 25.2529L21.1622 25.2516Z" fill="url(#paint8_linear_14481_112782)"/>
<path d="M27.0873 25.8516C27.25 25.0666 27.2773 24.3958 27.1394 23.8517C27.0016 23.3064 26.7817 22.8717 26.4873 22.5537C26.1817 22.2233 25.5656 21.7177 24.6564 21.0569C23.5533 20.247 22.9136 19.7204 22.7012 19.4508C22.459 19.1527 22.4031 18.6819 22.5335 18.0497C22.6155 17.6559 22.7509 17.3702 22.9434 17.1802C23.1509 16.9752 23.4117 16.887 23.7198 16.9193C24.1024 16.9591 24.2701 17.1168 24.3409 17.3988C24.403 17.6422 24.3011 18.0733 24.157 18.7676L24.0713 19.1825C24.1086 19.2061 24.8303 19.6582 25.9917 19.78C27.1543 19.9017 27.8648 19.6011 27.9021 19.585C27.963 19.3713 28.0214 19.2061 28.045 19.0931C28.2574 18.0695 28.1369 17.2298 27.6711 16.5939C27.1966 15.9479 26.3022 15.4809 25.1172 15.2113L24.9036 15.1716L25.1433 14.0189C25.1358 14.0052 24.9992 13.7468 24.4055 13.6835C23.8105 13.6214 23.4962 13.8326 23.4788 13.8437L23.2043 15.0114C21.8367 15.0114 20.8132 15.2846 20.0306 15.8101C19.2543 16.3318 18.8021 17.0994 18.586 18.1453C18.4369 18.8645 18.4742 19.534 18.6667 20.134C18.8592 20.7402 19.1474 21.2271 19.5064 21.5848C19.8778 21.9537 20.6243 22.5612 21.715 23.3859C22.418 23.9139 22.7931 24.3735 22.8552 24.7933C22.9074 25.1461 22.8664 25.6703 22.7298 26.387C24.1781 26.4044 25.6178 26.2963 27.0363 26.074C27.0537 26.0007 27.0711 25.9274 27.086 25.8516H27.0873Z" fill="url(#paint9_linear_14481_112782)"/>
</g>
<path d="M19.8766 15.5318L18.6519 15.2287L19.7623 15.8324L19.8915 16.1268L19.5909 17.3714L20.1872 16.2411L20.4753 16.1107L21.6989 16.4137L20.5896 15.8088L20.4604 15.5157L20.7623 14.271L20.166 15.4014L19.8766 15.5318Z" fill="white"/>
<path opacity="0.7" d="M26.2166 8.42169C25.7371 8.37076 25.2589 8.34592 24.7807 8.34592C17.6532 8.34592 10.9481 13.8474 9.41527 21.232C9.2774 21.8965 9.18672 22.5561 9.13828 23.2058C9.5308 23.4803 9.93325 23.7436 10.3444 23.9958C10.3618 23.1673 10.4562 22.3288 10.6326 21.4854C11.3145 18.2049 13.1479 15.1815 15.7962 12.9754C18.4171 10.7917 21.6082 9.58931 24.7819 9.58931C25.2167 9.58931 25.6564 9.61291 26.0874 9.65763C29.3108 9.99674 32.1044 11.5768 33.9515 14.107C34.9117 15.4212 35.5713 16.9217 35.9104 18.5663C36.2656 20.2817 36.2544 22.0729 35.8768 23.8902C35.8458 24.0405 35.8098 24.1883 35.7737 24.3374C36.2557 24.0914 36.7327 23.8331 37.2022 23.5623C38.4878 15.9193 33.6733 9.20424 26.2166 8.42169Z" fill="url(#paint10_linear_14481_112782)"/>
<g clip-path="url(#clip1_14481_112782)">
<path d="M19.7285 41.6493L16.2814 34.3209L15.0453 35.7522C12.0509 33.5063 9.95833 30.3358 9.22691 26.8527C8.9656 22.2889 11.0817 17.7385 14.5528 14.8159C15.0382 14.3324 14.4974 13.1844 14.5215 12.5172C14.3416 12.3255 13.6638 12.9681 13.5646 13.0135C8.50142 16.5556 4.6737 22.5979 5.71777 28.8571C5.70519 28.77 5.69071 28.6829 5.67806 28.5939C5.93532 32.9884 7.85734 37.2635 11.3567 40.0152L10.8228 40.6356L11.0831 42.6255L19.9888 43.6392L19.7285 41.6493ZM14.5096 12.5576C14.5096 12.5576 14.5114 12.5556 14.5132 12.5537C14.5095 12.5557 14.5134 12.5575 14.5096 12.5576Z" fill="#3362CC"/>
<path d="M5.93091 30.5734L5.67437 28.5808C5.71826 28.9281 5.77743 29.2749 5.84984 29.6175C5.88385 29.7803 5.92175 29.9448 5.9634 30.1074C6.85123 33.6306 9.12219 36.7828 12.2989 38.9372L12.5554 40.9298C9.37675 38.7736 7.10586 35.6234 6.21993 32.1C6.17828 31.9375 6.14045 31.7748 6.10638 31.6101C6.03391 31.2657 5.9748 30.9207 5.93091 30.5734Z" fill="#3362CC"/>
<path d="M5.92781 30.5662L5.67439 28.5718C5.71773 28.9194 5.77641 29.2666 5.84839 29.6095C5.88219 29.7724 5.91989 29.9371 5.96136 30.0998C6.84527 33.6267 9.11811 36.7842 12.302 38.9445L12.5554 40.9389C9.36955 38.7767 7.09677 35.6211 6.21478 32.0942C6.17331 31.9315 6.13567 31.7687 6.1018 31.6038C6.02977 31.259 5.97115 30.9138 5.92781 30.5662Z" fill="black"/>
<path d="M12.2975 38.9263L12.5557 40.9169C12.2548 40.714 11.9631 40.5012 11.6788 40.2806L11.4206 38.29C11.7049 38.5107 11.9966 38.7234 12.2975 38.9263Z" fill="#3362CC"/>
<path d="M11.4267 38.2916L11.6805 40.2851C11.2124 39.9206 10.7666 39.5325 10.3451 39.1246L10.0913 37.1311C10.5128 37.539 10.9567 37.9272 11.4267 38.2916Z" fill="#3362CC"/>
<path d="M10.0935 37.1385L10.351 39.1295C8.33049 37.1736 6.88677 34.7448 6.22166 32.1068C6.17994 31.9444 6.14203 31.7819 6.10788 31.6173C6.03525 31.2732 5.97599 30.9286 5.93193 30.5816L5.67447 28.5906C5.71853 28.9376 5.77786 29.2841 5.85042 29.6264C5.88451 29.789 5.92248 29.9534 5.9642 30.1158C6.63122 32.7537 8.07304 35.1826 10.0935 37.1385Z" fill="#3362CC"/>
<path d="M14.5376 12.5158C14.5466 12.5574 14.4633 12.6269 14.3866 12.7267C14.1439 13.0416 13.7854 13.3129 13.4779 13.5749C13.5003 13.5608 13.4209 13.6359 13.3415 13.7109C13.2622 13.786 13.1827 13.8592 13.1827 13.8592C13.0077 14.0366 12.8406 14.2214 12.6773 14.406C12.2976 14.8399 11.949 15.2899 11.6258 15.7581C10.9813 16.6962 10.4419 17.6936 10.0198 18.725C9.15629 20.8324 8.78953 23.0846 8.9876 25.2983C9.03459 25.8337 9.11572 26.3642 9.22705 26.886C9.96386 30.3553 12.053 33.5173 15.0408 35.759L16.2802 34.3282L19.725 41.6619L10.8053 40.6407L12.2867 38.9311C9.1134 36.7814 6.84375 33.6371 5.95463 30.1178C5.91283 29.9554 5.87485 29.7929 5.8406 29.6284C5.11941 26.2252 5.76703 22.6056 7.54453 19.4708C8.7218 17.3965 10.3906 15.6481 12.255 14.0434C12.6735 13.6844 13.1209 13.3357 13.5768 13.0135C13.6475 12.9615 14.2783 12.46 14.4448 12.479C14.5061 12.4864 14.5332 12.4988 14.5377 12.5196L14.5376 12.5158Z" fill="#407BFF"/>
<path d="M19.7867 41.7917L10.8167 40.3203L11.0186 42.4892L19.9886 43.9606L19.7867 41.7917Z" fill="#3362CC"/>
</g>
</g>
<defs>
<filter id="filter0_f_14481_112782" x="2.60019" y="41" width="44" height="3.20001" filterUnits="userSpaceOnUse" color-interpolation-filters="sRGB">
<feFlood flood-opacity="0" result="BackgroundImageFix"/>
<feBlend mode="normal" in="SourceGraphic" in2="BackgroundImageFix" result="shape"/>
<feGaussianBlur stdDeviation="0.5" result="effect1_foregroundBlur_14481_112782"/>
</filter>
<linearGradient id="paint0_linear_14481_112782" x1="41.8939" y1="-2.69678" x2="16.908" y2="49.3879" gradientUnits="userSpaceOnUse">
<stop stop-color="#FFD243"/>
<stop offset="1" stop-color="#CD571B"/>
</linearGradient>
<linearGradient id="paint1_linear_14481_112782" x1="27.1656" y1="28.4353" x2="20.7113" y2="41.8915" gradientUnits="userSpaceOnUse">
<stop stop-color="#E08C3C"/>
<stop offset="1" stop-color="#FFD06F"/>
</linearGradient>
<linearGradient id="paint2_linear_14481_112782" x1="15.5117" y1="61.6842" x2="32.6646" y2="-24.2678" gradientUnits="userSpaceOnUse">
<stop stop-color="#F5942A"/>
<stop offset="1" stop-color="#F5D85D"/>
</linearGradient>
<linearGradient id="paint3_linear_14481_112782" x1="19.098" y1="43.5411" x2="30.3109" y2="-12.6427" gradientUnits="userSpaceOnUse">
<stop stop-color="#E08C3C"/>
<stop offset="1" stop-color="#FFD06F"/>
</linearGradient>
<linearGradient id="paint4_linear_14481_112782" x1="40.0507" y1="30.1047" x2="14.2574" y2="18.8558" gradientUnits="userSpaceOnUse">
<stop stop-color="#FFC46D"/>
<stop offset="0.1" stop-color="#FFD067"/>
<stop offset="0.91" stop-color="#CD553F"/>
</linearGradient>
<linearGradient id="paint5_linear_14481_112782" x1="28.9082" y1="0.551417" x2="14.2284" y2="58.4344" gradientUnits="userSpaceOnUse">
<stop offset="0.2" stop-color="#FFDE43"/>
<stop offset="0.56" stop-color="#FFD13E"/>
<stop offset="1" stop-color="#FFBD37"/>
</linearGradient>
<linearGradient id="paint6_linear_14481_112782" x1="26.1864" y1="8.99544" x2="17.4851" y2="43.3037" gradientUnits="userSpaceOnUse">
<stop offset="0.16" stop-color="#FFDE43"/>
<stop offset="0.25" stop-color="#FFDA41"/>
<stop offset="1" stop-color="#FFBD37"/>
</linearGradient>
<linearGradient id="paint7_linear_14481_112782" x1="17.1628" y1="22.4195" x2="28.198" y2="22.4195" gradientUnits="userSpaceOnUse">
<stop offset="0.16" stop-color="#FFDE43"/>
<stop offset="0.25" stop-color="#FFDA41"/>
<stop offset="1" stop-color="#FFBD37"/>
</linearGradient>
<linearGradient id="paint8_linear_14481_112782" x1="19.6779" y1="23.2977" x2="18.5649" y2="27.6887" gradientUnits="userSpaceOnUse">
<stop offset="0.02" stop-color="#FFFFA0"/>
<stop offset="0.98" stop-color="#FFEB6A"/>
</linearGradient>
<linearGradient id="paint9_linear_14481_112782" x1="25.7867" y1="10.3707" x2="19.5797" y2="34.8448" gradientUnits="userSpaceOnUse">
<stop offset="0.02" stop-color="#FFFFA0"/>
<stop offset="0.98" stop-color="#FFEB6A"/>
</linearGradient>
<linearGradient id="paint10_linear_14481_112782" x1="28.1444" y1="3.29781" x2="18.5848" y2="40.9897" gradientUnits="userSpaceOnUse">
<stop offset="0.02" stop-color="#FFFFA0"/>
<stop offset="0.98" stop-color="#FFEB6A"/>
</linearGradient>
<clipPath id="clip0_14481_112782">
<rect width="48" height="48" fill="white"/>
</clipPath>
<clipPath id="clip1_14481_112782">
<rect width="19.2" height="13.2" fill="white" transform="translate(7.2002 34.8)"/>
</clipPath>
</defs>
</svg>
