<svg width="48" height="48" viewBox="0 0 48 48" fill="none" xmlns="http://www.w3.org/2000/svg">
<circle cx="24" cy="24" r="24" fill="#F6F6F6"/>
<g opacity="0.1" filter="url(#filter0_f_14481_112797)">
<ellipse cx="24.6" cy="42.6" rx="21" ry="0.6" fill="black"/>
</g>
<path fill-rule="evenodd" clip-rule="evenodd" d="M15.5172 31.0372L22.5768 33.9009L17.016 45.8451C16.9728 45.9379 16.8876 45.9951 16.7852 45.9997C16.6829 46.0043 16.5928 45.9552 16.5413 45.8667L14.4694 42.3013L10.4072 43.0111C10.3064 43.0287 10.2107 42.9914 10.1484 42.9101C10.0862 42.8288 10.0749 42.7268 10.1182 42.634L15.5172 31.0372Z" fill="url(#paint0_linear_14481_112797)"/>
<path fill-rule="evenodd" clip-rule="evenodd" d="M21.2031 33.3436L22.5768 33.9009L17.0218 45.8318L17.016 45.8451L17.014 45.8487C16.9701 45.939 16.886 45.9951 16.7852 45.9997C16.6829 46.0043 16.5928 45.9552 16.5413 45.8667L15.8925 44.7495L21.2031 33.3436Z" fill="#073073"/>
<path fill-rule="evenodd" clip-rule="evenodd" d="M33.4912 31.0372L26.4317 33.9009L31.9924 45.8451C32.0357 45.9379 32.121 45.9951 32.2233 45.9997C32.3256 46.0043 32.4157 45.9552 32.4672 45.8666L34.539 42.3012L38.6011 43.011C38.702 43.0286 38.7977 42.9913 38.8599 42.91C38.9222 42.8287 38.9335 42.7267 38.8902 42.6339L33.4912 31.0372Z" fill="url(#paint1_linear_14481_112797)"/>
<path fill-rule="evenodd" clip-rule="evenodd" d="M33.4912 31.0372L32.1175 31.5945L37.3292 42.7888L38.6011 43.011C38.702 43.0286 38.7977 42.9913 38.8599 42.91C38.9222 42.8287 38.9335 42.7267 38.8902 42.6339L33.4912 31.0372Z" fill="#073073"/>
<path fill-rule="evenodd" clip-rule="evenodd" d="M26.7837 2.78795L29.1276 4.54241C29.7687 5.02224 30.4435 5.26782 31.2429 5.31231L34.1662 5.4749C35.9166 5.57228 37.3382 6.76517 37.7381 8.47211L38.4058 11.3227C38.5885 12.1024 38.9475 12.7242 39.5313 13.2721L41.6662 15.2758C42.9445 16.4755 43.2667 18.3031 42.4758 19.8678L41.155 22.4808C40.7938 23.1953 40.6691 23.9025 40.7641 24.6975L41.1116 27.6047C41.3197 29.3454 40.3918 30.9525 38.7803 31.6427L36.0888 32.7954C35.3527 33.1106 34.8027 33.5721 34.3644 34.2423L32.7619 36.6926C31.8024 38.1598 30.0585 38.7945 28.3803 38.2874L25.5777 37.4404C24.8112 37.2087 24.0932 37.2087 23.3267 37.4404L20.5241 38.2874C18.8459 38.7945 17.1021 38.1598 16.1425 36.6926L14.54 34.2423C14.1017 33.5721 13.5517 33.1106 12.8156 32.7954L10.1244 31.6427C8.51289 30.9525 7.58496 29.3453 7.79302 27.6046L8.14053 24.6974C8.2355 23.9023 8.11087 23.1953 7.7496 22.4807L6.42877 19.8677C5.63788 18.3031 5.96012 16.4755 7.23842 15.2757L9.37328 13.272C9.95709 12.724 10.3161 12.1023 10.4987 11.3226L11.1665 8.47202C11.5664 6.76509 12.988 5.57219 14.7384 5.47481L17.6617 5.31222C18.4612 5.26773 19.136 5.02215 19.777 4.54233L22.1208 2.78786C23.5244 1.73736 25.3803 1.73736 26.7837 2.78795Z" fill="#FFE864"/>
<path fill-rule="evenodd" clip-rule="evenodd" d="M26.7837 2.78795L29.1276 4.54241C29.7687 5.02224 30.4435 5.26782 31.2429 5.31231L34.1662 5.4749C35.9166 5.57228 37.3382 6.76517 37.7381 8.47211L38.4058 11.3227C38.5885 12.1024 38.9475 12.7242 39.5313 13.2721L41.6662 15.2758C42.9445 16.4755 43.2667 18.3031 42.4758 19.8678L41.155 22.4808C40.7938 23.1953 40.6691 23.9025 40.7641 24.6975L41.1116 27.6047C41.3197 29.3454 40.3918 30.9525 38.7803 31.6427L36.0888 32.7954C35.3527 33.1106 34.8027 33.5721 34.3644 34.2423L32.7619 36.6926C31.8749 38.0489 30.3177 38.6936 28.7617 38.3828C29.7473 38.1821 30.6341 37.5948 31.2242 36.6925L32.8267 34.2422C33.2649 33.572 33.815 33.1105 34.551 32.7953L37.2424 31.6427C38.854 30.9525 39.7819 29.3453 39.5738 27.6046L39.2263 24.6974C39.1313 23.9023 39.256 23.1953 39.6172 22.4807L40.9381 19.8677C41.729 18.3031 41.4067 16.4755 40.1284 15.2758L37.9936 13.2721C37.4098 12.7241 37.0507 12.1023 36.8681 11.3226L36.2003 8.47202C35.8005 6.76509 34.3789 5.57219 32.6284 5.4749L29.7052 5.31231C28.9056 5.26782 28.2309 5.02224 27.5899 4.54241L25.246 2.78795C24.766 2.42864 24.2331 2.19235 23.6835 2.07881C24.7409 1.86029 25.8602 2.09667 26.7837 2.78795ZM23.6834 37.3486C23.5655 37.3735 23.4467 37.4041 23.3267 37.4404L20.5241 38.2874C19.8779 38.4826 19.2222 38.5085 18.6051 38.3829C18.7323 38.3574 18.8596 38.3258 18.9864 38.2874L21.7891 37.4404C22.4357 37.2449 23.0477 37.2143 23.6834 37.3486Z" fill="#E89831"/>
<path d="M32.9029 28.6855C37.5725 24.0158 37.5726 16.4449 32.9029 11.7753C28.2333 7.10568 20.6624 7.10568 15.9928 11.7753C11.3232 16.4449 11.3232 24.0158 15.9928 28.6855C20.6624 33.3551 28.2333 33.3551 32.9029 28.6855Z" fill="#F8C251"/>
<path fill-rule="evenodd" clip-rule="evenodd" d="M24.4523 8.27084C24.7107 8.27084 24.9669 8.27995 25.2212 8.29612C18.9747 8.69259 14.031 13.8834 14.031 20.2299C14.031 26.5763 18.9748 31.7673 25.2212 32.1637C24.9669 32.1799 24.7107 32.189 24.4523 32.189C17.8475 32.189 12.4932 26.8348 12.4932 20.23C12.4932 13.6251 17.8475 8.27084 24.4523 8.27084Z" fill="#F6AF3E"/>
<path fill-rule="evenodd" clip-rule="evenodd" d="M22.9572 21.2341L28.4926 15.6434C29.1479 14.9816 30.2169 14.9798 30.8767 15.636C31.5365 16.2921 31.5385 17.3581 30.8841 18.0186C28.6394 20.2841 26.4099 22.5645 24.1549 24.8196C23.4957 25.4788 22.4263 25.4788 21.7671 24.8196L18.0258 21.0784C17.3666 20.4191 17.3666 19.3497 18.0258 18.6905C18.685 18.0313 19.7544 18.0313 20.4137 18.6905L22.9572 21.2341Z" fill="white"/>
<path d="M24.6008 9.42422L21.2244 10.2454L24.2858 8.6098L24.6419 7.8122L23.8132 4.44009L25.4569 7.50259L26.2514 7.85595L29.6244 7.0348L26.5664 8.67374L26.2103 9.46797L27.0424 12.8401L25.3987 9.77759L24.6008 9.42422Z" fill="white"/>
<defs>
<filter id="filter0_f_14481_112797" x="2.60001" y="41" width="44" height="3.20001" filterUnits="userSpaceOnUse" color-interpolation-filters="sRGB">
<feFlood flood-opacity="0" result="BackgroundImageFix"/>
<feBlend mode="normal" in="SourceGraphic" in2="BackgroundImageFix" result="shape"/>
<feGaussianBlur stdDeviation="0.5" result="effect1_foregroundBlur_14481_112797"/>
</filter>
<linearGradient id="paint0_linear_14481_112797" x1="9.86566" y1="3.68245" x2="37.2652" y2="38.2428" gradientUnits="userSpaceOnUse">
<stop stop-color="#F7D107"/>
<stop offset="0.665915" stop-color="#DB1F26"/>
<stop offset="1" stop-color="#264BA5"/>
</linearGradient>
<linearGradient id="paint1_linear_14481_112797" x1="9.86566" y1="3.68245" x2="37.2652" y2="38.2428" gradientUnits="userSpaceOnUse">
<stop stop-color="#F7D107"/>
<stop offset="0.665915" stop-color="#DB1F26"/>
<stop offset="1" stop-color="#264BA5"/>
</linearGradient>
</defs>
</svg>
