<svg width="48" height="48" viewBox="0 0 48 48" fill="none" xmlns="http://www.w3.org/2000/svg">
<circle cx="24" cy="24" r="24" fill="#F6F6F6"/>
<path d="M13.7662 34.4182L14.713 36.5989C15.0796 37.4409 15.91 37.986 16.8296 37.986H20.8011C21.3288 37.986 21.8332 37.7765 22.2057 37.404H29.6228C30.2049 37.404 30.7501 37.1246 31.0896 36.6532L32.0694 35.2912L13.7662 34.4201V34.4182Z" fill="#2E353A"/>
<path d="M19.8097 25.7729C19.8097 26.8167 23.9771 34.2435 24.3961 34.5404C24.8132 34.8353 30.2534 34.5054 30.2534 34.5054L29.8479 36.0459H14.9011L8.69659 23.9958L12.8 18.0745L20.2792 18.2821C20.2792 18.2821 19.8097 24.7311 19.8097 25.7749V25.7729Z" fill="#407BFF"/>
<path opacity="0.2" d="M19.8097 25.7729C19.8097 26.8167 23.9771 34.2435 24.3961 34.5404C24.8132 34.8353 30.2534 34.5054 30.2534 34.5054L29.8479 36.0459H14.9011L8.69659 23.9958L12.8 18.0745L20.2792 18.2821C20.2792 18.2821 19.8097 24.7311 19.8097 25.7749V25.7729Z" fill="black"/>
<path d="M7.67415 41.7829C11.0397 41.7829 13.7681 38.4916 13.7681 34.4317C13.7681 30.3718 11.0397 27.0806 7.67415 27.0806C4.30855 27.0806 1.5802 30.3718 1.5802 34.4317C1.5802 38.4916 4.30855 41.7829 7.67415 41.7829Z" fill="#2E353A"/>
<path d="M6.65364 39.0686C8.77629 39.0686 10.497 36.9926 10.497 34.4317C10.497 31.8708 8.77629 29.7948 6.65364 29.7948C4.53099 29.7948 2.81024 31.8708 2.81024 34.4317C2.81024 36.9926 4.53099 39.0686 6.65364 39.0686Z" fill="white"/>
<path d="M5.77086 36.302C6.65485 36.302 7.37147 35.4377 7.37147 34.3716C7.37147 33.3054 6.65485 32.4412 5.77086 32.4412C4.88687 32.4412 4.17026 33.3054 4.17026 34.3716C4.17026 35.4377 4.88687 36.302 5.77086 36.302Z" fill="#407BFF"/>
<path opacity="0.4" d="M5.77086 36.302C6.65485 36.302 7.37147 35.4377 7.37147 34.3716C7.37147 33.3054 6.65485 32.4412 5.77086 32.4412C4.88687 32.4412 4.17026 33.3054 4.17026 34.3716C4.17026 35.4377 4.88687 36.302 5.77086 36.302Z" fill="black"/>
<path d="M41.6205 23.3284C41.6205 23.3284 36.1183 27.5462 34.021 36.2399H25.2129L33.5574 22.6668L37.9576 20.8372L41.6186 23.3284H41.6205Z" fill="#407BFF"/>
<path opacity="0.4" d="M42.1968 22.8977C42.1968 22.8977 37.0515 26.8322 34.5953 34.23C34.1996 35.4231 33.0937 36.238 31.8365 36.238H25.2148L33.5593 22.6648L37.9595 20.8353L42.1987 22.8977H42.1968Z" fill="black"/>
<path d="M41.6594 23.2411H38.2622C37.6142 23.2411 36.9837 23.4118 36.4482 23.7727C34.4305 25.1152 29.6597 28.8597 29.1592 34.7926C29.0893 35.6016 28.4219 36.2399 27.609 36.2399H12.8407C10.3593 36.2399 7.9225 35.5822 5.7806 34.3328L1.55694 31.8727C0.623735 31.3275 0.136762 30.2488 0.357937 29.1914C0.86043 26.7682 2.27672 22.6105 6.32965 20.9847C6.39174 20.9556 6.29667 20.9304 6.49069 20.9071V18.3907H17.076C17.076 18.3907 14.9516 23.4525 14.9516 25.5401C14.9516 27.5152 17.0392 35.0758 19.7398 35.8519H23.4338C24.4214 35.8519 25.3313 35.2582 25.8163 34.3968C27.6129 31.1917 31.6037 22.8744 30.3582 15.0169C30.2146 14.0972 30.9208 13.1543 31.8521 13.1543H36.6054C36.6054 13.1543 40.8834 18.1055 42.2589 22.2904C42.3928 22.6978 42.0882 23.243 41.6575 23.243L41.6594 23.2411Z" fill="#407BFF"/>
<path d="M34.0347 11.577H32.6805C32.3254 11.577 31.9762 11.4528 31.7007 11.2297L28.9089 8.96947C28.7983 8.88022 28.6605 8.83172 28.5189 8.83172H23.1564C22.943 8.83172 22.7683 8.6571 22.7683 8.44369C22.7683 8.23028 22.943 8.05566 23.1564 8.05566H28.5189C28.8371 8.05566 29.1494 8.16625 29.3978 8.36609L32.1896 10.6263C32.3293 10.7389 32.5039 10.8009 32.6824 10.8009H34.0366C34.4246 10.8009 34.7564 10.5119 34.8107 10.1277L34.9349 9.2566C35.0319 8.57174 35.6256 8.05566 36.3182 8.05566H37.3387C37.5521 8.05566 37.7267 8.23028 37.7267 8.44369C37.7267 8.6571 37.5521 8.83172 37.3387 8.83172H36.3182C36.0117 8.83172 35.7478 9.06065 35.7032 9.36525L35.579 10.2364C35.4704 11.0008 34.8068 11.577 34.0366 11.577H34.0347Z" fill="#2E353A"/>
<path d="M31.6444 9.93178C31.6444 9.93178 31.66 10.8475 30.8024 10.7893L30.5211 11.7827C30.4416 12.0659 30.4842 12.3686 30.6394 12.6169L31.2467 13.5909H36.8808L37.3232 12.7585C37.4687 12.4869 37.4202 12.1513 37.2048 11.9301L35.5305 10.215C35.352 10.0327 35.1095 9.92984 34.8553 9.92984H31.6444V9.93178Z" fill="#407BFF"/>
<path opacity="0.4" d="M31.6444 9.93178C31.6444 9.93178 31.66 10.8475 30.8024 10.7893L30.5211 11.7827C30.4416 12.0659 30.4842 12.3686 30.6394 12.6169L31.2467 13.5909H36.8808L37.3232 12.7585C37.4687 12.4869 37.4202 12.1513 37.2048 11.9301L35.5305 10.215C35.352 10.0327 35.1095 9.92984 34.8553 9.92984H31.6444V9.93178Z" fill="black"/>
<path d="M41.3063 41.7829C44.6719 41.7829 47.4002 38.4916 47.4002 34.4317C47.4002 30.3718 44.6719 27.0806 41.3063 27.0806C37.9407 27.0806 35.2123 30.3718 35.2123 34.4317C35.2123 38.4916 37.9407 41.7829 41.3063 41.7829Z" fill="#2E353A"/>
<path d="M40.2877 39.0686C42.4104 39.0686 44.1311 36.9926 44.1311 34.4317C44.1311 31.8708 42.4104 29.7948 40.2877 29.7948C38.1651 29.7948 36.4443 31.8708 36.4443 34.4317C36.4443 36.9926 38.1651 39.0686 40.2877 39.0686Z" fill="white"/>
<path d="M47.3032 29.692C46.661 28.5997 44.944 26.2386 41.8592 25.5479C40.9493 25.3442 40.1461 25.3519 39.4476 25.478L39.4341 25.447L39.4476 25.4159C39.4476 25.4159 39.4321 25.4198 39.4224 25.4218L38.8928 24.2111H38.2894C37.8005 24.2111 37.3232 24.3702 36.9313 24.6651L35.872 25.4606L36.3706 27.1892C36.1805 27.3949 36.0466 27.5675 35.9671 27.6781C34.9698 28.9198 34.3723 30.406 34.1938 31.5002C34.153 31.7485 34.3471 31.9716 34.5993 31.9716H34.9174C35.0862 31.9716 35.2376 31.8688 35.2977 31.7117C35.4626 31.2848 35.8623 30.4157 36.6151 29.7327L38.3825 34.3328L39.8046 33.7352L39.308 28.0021C39.308 28.0021 42.579 27.0825 44.719 29.7269C44.9731 30.0412 45.3515 30.2255 45.755 30.2255H46.9986C47.2722 30.2255 47.4449 29.9287 47.3052 29.692H47.3032Z" fill="#407BFF"/>
<path opacity="0.2" d="M47.3032 29.692C46.661 28.5997 44.944 26.2386 41.8592 25.5479C40.9493 25.3442 40.1461 25.3519 39.4476 25.478L39.4341 25.447L39.4476 25.4159C39.4476 25.4159 39.4321 25.4198 39.4224 25.4218L38.8928 24.2111H38.2894C37.8005 24.2111 37.3232 24.3702 36.9313 24.6651L35.872 25.4606L36.3706 27.1892C36.1805 27.3949 36.0466 27.5675 35.9671 27.6781C34.9698 28.9198 34.3723 30.406 34.1938 31.5002C34.153 31.7485 34.3471 31.9716 34.5993 31.9716H34.9174C35.0862 31.9716 35.2376 31.8688 35.2977 31.7117C35.4626 31.2848 35.8623 30.4157 36.6151 29.7327L38.3825 34.3328L39.8046 33.7352L39.308 28.0021C39.308 28.0021 42.579 27.0825 44.719 29.7269C44.9731 30.0412 45.3515 30.2255 45.755 30.2255H46.9986C47.2722 30.2255 47.4449 29.9287 47.3052 29.692H47.3032Z" fill="black"/>
<path d="M39.405 36.302C40.289 36.302 41.0056 35.4377 41.0056 34.3716C41.0056 33.3054 40.289 32.4412 39.405 32.4412C38.521 32.4412 37.8044 33.3054 37.8044 34.3716C37.8044 35.4377 38.521 36.302 39.405 36.302Z" fill="#407BFF"/>
<path opacity="0.4" d="M39.405 36.302C40.289 36.302 41.0056 35.4377 41.0056 34.3716C41.0056 33.3054 40.289 32.4412 39.405 32.4412C38.521 32.4412 37.8044 33.3054 37.8044 34.3716C37.8044 35.4377 38.521 36.302 39.405 36.302Z" fill="black"/>
<path d="M33.6408 13.8043C33.6408 13.8043 34.6478 20.1427 37.9731 20.1873C41.089 20.228 41.38 14.2777 38.4077 13.3619C36.0059 12.6227 33.6408 13.8043 33.6408 13.8043Z" fill="#407BFF"/>
<path opacity="0.2" d="M33.6408 13.8043C33.6408 13.8043 34.6478 20.1427 37.9731 20.1873C41.089 20.228 41.38 14.2777 38.4077 13.3619C36.0059 12.6227 33.6408 13.8043 33.6408 13.8043Z" fill="black"/>
<path d="M40.2742 16.7183C40.3479 18.3286 39.3778 19.6324 38.107 19.6324C36.8362 19.6324 35.7478 18.3267 35.6741 16.7183C35.6004 15.108 36.5704 13.8043 37.8412 13.8043C39.112 13.8043 40.2004 15.11 40.2742 16.7183Z" fill="white"/>
<path d="M37.1117 12.5626H34.2229L34.4518 12.1901H37.1117V12.5626Z" fill="#407BFF"/>
<path d="M21.2357 18.123V18.8525C21.2357 19.5141 20.6944 19.9428 20.0308 19.9428H6.90974C6.24621 19.9428 5.71268 19.5141 5.71268 18.8525V18.123C5.71268 17.4614 6.24427 17.0327 6.90974 17.0327H20.0308C20.6924 17.0327 21.2357 17.4614 21.2357 18.123Z" fill="#2E353A"/>
<path opacity="0.2" d="M16.9674 18.123V18.8525C16.9674 19.5141 16.5153 19.9428 15.8499 19.9428H6.90974C6.24621 19.9428 5.71268 19.5141 5.71268 18.8525V18.123C5.71268 17.4614 6.24427 17.0327 6.90974 17.0327H15.8499C16.5134 17.0327 16.9674 17.4614 16.9674 18.123Z" fill="white"/>
<path opacity="0.2" d="M15.3163 31.5603V36.2399H12.8388C10.3574 36.2399 7.92055 35.5822 5.77865 34.3328L1.55498 31.8727C0.621782 31.3275 0.134809 30.2488 0.355984 29.1914C0.858477 26.7682 2.30193 22.6105 6.3568 20.9847L6.545 20.9944H8.18247C10.1129 20.9944 11.8707 22.1119 12.6874 23.8619L14.4374 27.6063C15.0156 28.8441 15.3163 30.1945 15.3163 31.5603Z" fill="black"/>
<g opacity="0.1" filter="url(#filter0_f_14481_112779)">
<ellipse cx="24.6" cy="42.6" rx="21" ry="0.6" fill="black"/>
</g>
<path d="M13.0939 23.958L11.8691 23.655L12.9796 24.2586L13.1088 24.553L12.8082 25.7977L13.4044 24.6673L13.6926 24.5369L14.9161 24.84L13.8069 24.235L13.6777 23.9419L13.9796 22.6973L13.3833 23.8276L13.0939 23.958Z" fill="white"/>
<defs>
<filter id="filter0_f_14481_112779" x="2.60001" y="41" width="44" height="3.20001" filterUnits="userSpaceOnUse" color-interpolation-filters="sRGB">
<feFlood flood-opacity="0" result="BackgroundImageFix"/>
<feBlend mode="normal" in="SourceGraphic" in2="BackgroundImageFix" result="shape"/>
<feGaussianBlur stdDeviation="0.5" result="effect1_foregroundBlur_14481_112779"/>
</filter>
</defs>
</svg>
