<svg width="48" height="48" viewBox="0 0 48 48" fill="none" xmlns="http://www.w3.org/2000/svg">
<circle cx="24" cy="24" r="24" fill="#F6F6F6"/>
<path d="M17.25 21.75H10.5C8.01465 21.75 6 19.7353 6 17.25V10.5C6 8.01465 8.01465 6 10.5 6H17.25C19.7353 6 21.75 8.01465 21.75 10.5V17.25C21.75 19.7353 19.7353 21.75 17.25 21.75Z" fill="#2958C2"/>
<path d="M37.5 21.75H30.75C28.2647 21.75 26.25 19.7353 26.25 17.25V10.5C26.25 8.01465 28.2647 6 30.75 6H37.5C39.9853 6 42 8.01465 42 10.5V17.25C42 19.7353 39.9853 21.75 37.5 21.75Z" fill="#407BFF"/>
<g filter="url(#filter0_d_14481_112803)">
<path d="M34.125 42C29.7758 42 26.25 38.4742 26.25 34.125C26.25 29.7758 29.7758 26.25 34.125 26.25C38.4742 26.25 42 29.7758 42 34.125C42 38.4742 38.4742 42 34.125 42Z" fill="#2958C2"/>
</g>
<path d="M17.25 42H10.5C8.01465 42 6 39.9853 6 37.5V30.75C6 28.2647 8.01465 26.25 10.5 26.25H17.25C19.7353 26.25 21.75 28.2647 21.75 30.75V37.5C21.75 39.9853 19.7353 42 17.25 42Z" fill="#407BFF"/>
<defs>
<filter id="filter0_d_14481_112803" x="26.0897" y="26.0897" width="16.0706" height="16.0706" filterUnits="userSpaceOnUse" color-interpolation-filters="sRGB">
<feFlood flood-opacity="0" result="BackgroundImageFix"/>
<feColorMatrix in="SourceAlpha" type="matrix" values="0 0 0 0 0 0 0 0 0 0 0 0 0 0 0 0 0 0 127 0" result="hardAlpha"/>
<feMorphology radius="0.0534318" operator="dilate" in="SourceAlpha" result="effect1_dropShadow_14481_112803"/>
<feOffset/>
<feGaussianBlur stdDeviation="0.0534318"/>
<feComposite in2="hardAlpha" operator="out"/>
<feColorMatrix type="matrix" values="0 0 0 0 0 0 0 0 0 0 0 0 0 0 0 0 0 0 0.02 0"/>
<feBlend mode="normal" in2="BackgroundImageFix" result="effect1_dropShadow_14481_112803"/>
<feBlend mode="normal" in="SourceGraphic" in2="effect1_dropShadow_14481_112803" result="shape"/>
</filter>
</defs>
</svg>
